<svg xmlns="http://www.w3.org/2000/svg" xmlns:xlink="http://www.w3.org/1999/xlink"><symbol id="icon-insta" viewBox="0 0 130 130"><g data-name="&#x421;&#x43B;&#x43E;&#x439; 2"><path d="M65 11.73c17.37 0 19.43.07 26.29.38a36 36 0 0112.1 2.24 21.53 21.53 0 0112.33 12.35A36.09 36.09 0 01118 38.78c.31 6.86.38 8.92.38 26.29s-.07 19.43-.38 26.29a36.09 36.09 0 01-2.24 12.08 21.57 21.57 0 01-12.35 12.34A36.09 36.09 0 0191.29 118c-6.86.31-8.92.38-26.29.38s-19.43-.07-26.29-.38a36.09 36.09 0 01-12.08-2.24 21.53 21.53 0 01-12.35-12.35A36.09 36.09 0 0112 91.35c-.31-6.86-.38-8.92-.38-26.29s.07-19.43.38-26.29a36.09 36.09 0 012.24-12.08 21.53 21.53 0 0112.39-12.35 36.09 36.09 0 0112.08-2.24c6.86-.31 8.92-.38 26.29-.38M65 0C47.33 0 45.11.07 38.18.39a47.9 47.9 0 00-15.79 3 33.28 33.28 0 00-19 19 47.86 47.86 0 00-3 15.79C.07 45.12 0 47.33 0 65s.07 19.89.39 26.82a47.86 47.86 0 003 15.79 33.28 33.28 0 0019 19 47.9 47.9 0 0015.79 3c6.94.32 9.15.39 26.82.39s19.89-.07 26.82-.39a47.9 47.9 0 0015.79-3 33.28 33.28 0 0019-19 47.86 47.86 0 003-15.79c.32-6.94.39-9.16.39-26.82s-.07-19.89-.39-26.82a47.86 47.86 0 00-3-15.79 33.28 33.28 0 00-19-19 47.9 47.9 0 00-15.79-3C84.88.07 82.67 0 65 0z"/><path d="M65 31.66a33.41 33.41 0 1033.37 33.43A33.41 33.41 0 0065 31.66zm0 55.1a21.69 21.69 0 1121.67-21.69A21.69 21.69 0 0165 86.75z"/><circle cx="99.71" cy="30.34" r="7.81"/></g></symbol><symbol id="icon-ok" viewBox="0 0 80.04 138.22"><g data-name="&#x421;&#x43B;&#x43E;&#x439; 2"><path d="M40 71.34A35.67 35.67 0 104.36 35.67 35.7 35.7 0 0040 71.34zm0-50.43a14.77 14.77 0 11-14.74 14.77A14.77 14.77 0 0140 20.91zM54.46 100.44a67 67 0 0020.69-8.58A10.45 10.45 0 1064 74.16a45.27 45.27 0 01-48 0 10.45 10.45 0 00-11.11 17.7 67.09 67.09 0 0020.71 8.58l-20 19.94a10.45 10.45 0 0014.79 14.78L40 115.56l19.6 19.6a10.45 10.45 0 0014.8-14.78z"/></g></symbol><symbol id="icon-vk" viewBox="0 0 160.93 91.78"><g data-name="&#x421;&#x43B;&#x43E;&#x439; 2"><path data-name="vk alt" d="M78.76 91.38h9.62s2.9-.32 4.39-1.92a6.35 6.35 0 001.32-4.22s-.19-12.9 5.8-14.81 13.49 12.47 21.52 18c6.08 4.17 10.69 3.26 10.69 3.26l21.49-.3s11.24-.69 5.91-9.53c-.44-.72-3.11-6.54-16-18.49-13.5-12.51-11.67-10.48 4.56-32.12C158 18.07 161.88 10 160.69 6.55c-1.18-3.28-8.45-2.42-8.45-2.42L128 4.28a5.6 5.6 0 00-3.12.55 6.8 6.8 0 00-2.13 2.6 141.65 141.65 0 01-8.91 18.9C103.08 44.62 98.77 45.55 97 44.45c-4.1-2.65-3.07-10.64-3.07-16.31 0-17.73 2.69-25.12-5.24-27C86.07.51 84.13.09 77.41 0c-8.63-.07-15.94 0-20.08 2.07-2.75 1.35-4.88 4.35-3.58 4.52 1.6.21 5.22 1 7.14 3.59 2.48 3.37 2.39 11 2.39 11S64.7 42 60 44.59c-3.26 1.78-7.74-1.85-17.34-18.45A153.53 153.53 0 0134 8.24a7.31 7.31 0 00-2-2.7A10.23 10.23 0 0028.25 4l-23 .15S1.8 4.29.53 5.79C-.6 7.13.44 9.89.44 9.89s18 42.11 38.38 63.34c18.69 19.46 39.91 18.18 39.91 18.18z"/></g></symbol><symbol id="icon-yt" viewBox="0 0 114.48 138.47"><g data-name="&#x421;&#x43B;&#x43E;&#x439; 2"><path d="M95.57 90.92q-3.46 0-3.47 5.3v3.53H99v-3.5c0-3.57-1.14-5.33-3.43-5.33z"/><path d="M112.48 71.51a14.46 14.46 0 00-12.37-11.26c-14.2-1.59-28.56-1.59-42.87-1.59s-28.68 0-42.87 1.59A14.46 14.46 0 002 71.5c-2 8.67-2 18.13-2 27.06S0 117 2 125.62a14.44 14.44 0 0012.37 11.26c14.19 1.59 28.56 1.59 42.87 1.59s28.67 0 42.87-1.59a14.46 14.46 0 0012.37-11.25c2-8.67 2-18.13 2-27.06s0-18.39-2-27.06zm-79.85 7.8h-8.26v44h-7.69v-44H8.54V72.1h24.12zm20.9 44h-6.92v-4.17c-2.75 3.16-5.36 4.69-7.9 4.69-2.23 0-3.76-.91-4.46-2.84a19.42 19.42 0 01-.61-5.68V85.16h6.92v28.09a20.1 20.1 0 00.06 2.69c.17 1.07.69 1.62 1.62 1.62 1.39 0 2.84-1.07 4.37-3.24V85.16h6.92zm26.28-11.46a30.57 30.57 0 01-.7 7.69c-.92 2.84-2.77 4.29-5.53 4.29-2.46 0-4.84-1.37-7.15-4.23v3.7h-6.92V72.1h6.92v16.73c2.23-2.75 4.61-4.14 7.15-4.14 2.76 0 4.61 1.45 5.53 4.31a29.6 29.6 0 01.7 7.68zm26.11-6.37H92.09v6.77c0 3.53 1.16 5.3 3.53 5.3 1.7 0 2.7-.93 3.09-2.78a45.93 45.93 0 00.15-4.69h7.06v1c0 2.23-.09 3.76-.15 4.46a9.85 9.85 0 01-1.62 4.14 9.56 9.56 0 01-8.37 4.14 9.88 9.88 0 01-8.37-3.91c-1.47-1.91-2.22-4.92-2.22-9V97.6c0-4.08.67-7.07 2.14-9a9.84 9.84 0 018.29-3.91 9.62 9.62 0 018.16 3.91c1.45 1.93 2.14 4.92 2.14 9z"/><path d="M69.9 90.92a5 5 0 00-3.45 1.68v23.27a5 5 0 003.45 1.7c2 0 3-1.7 3-5.15V96.13c.01-3.45-1.01-5.21-3-5.21zM45.24 0h-7.87l-5.28 20.32L26.59 0h-8.15c1.63 4.8 3.33 9.62 5 14.42a127.09 127.09 0 014.73 16.37v21h7.75v-21zM66 39.25v-13.5c0-4.12-.71-7.13-2.17-9.09a10.37 10.37 0 00-14.56-1.73 10.49 10.49 0 00-1.73 1.73c-1.49 2-2.19 5-2.19 9.09v13.5c0 4.1.7 7.14 2.19 9.07a10.37 10.37 0 0014.56 1.73 10.89 10.89 0 001.73-1.73C65.25 46.4 66 43.36 66 39.25zm-7 1.31c0 3.57-1.08 5.35-3.33 5.35s-3.34-1.79-3.34-5.35V24.35c0-3.57 1.08-5.34 3.34-5.34S59 20.78 59 24.35zm32.79 11.17V13.18h-7v29.47c-1.55 2.19-3 3.27-4.41 3.27-.94 0-1.48-.55-1.64-1.64a16.46 16.46 0 01-.08-2.72V13.18h-7v30.5a19.43 19.43 0 00.62 5.73c.7 2 2.25 2.87 4.5 2.87 2.55 0 5.2-1.55 8-4.74v4.21z"/></g></symbol></svg>